<?xml version="1.0" encoding="UTF-8"?>
<svg width="1440px" height="602px" viewBox="0 0 1440 602" version="1.1" xmlns="http://www.w3.org/2000/svg" xmlns:xlink="http://www.w3.org/1999/xlink">
    <!-- Generator: Sketch 52.2 (67145) - http://www.bohemiancoding.com/sketch -->
    <title>Group 5heroImage</title>
    <desc>Created with Sketch.</desc>
    <defs>
        <linearGradient x1="50.0000032%" y1="119.208132%" x2="50.0000032%" y2="-2.44558559%" id="linearGradient-1">
            <stop stop-color="#000000" stop-opacity="0.0131906703" offset="0%"></stop>
            <stop stop-color="#F70C3F" offset="100%"></stop>
        </linearGradient>
        <linearGradient x1="50.0000032%" y1="119.208132%" x2="50.0000032%" y2="-2.44558559%" id="linearGradient-2">
            <stop stop-color="#000000" stop-opacity="0.0131906703" offset="0%"></stop>
            <stop stop-color="#F70C72" offset="100%"></stop>
        </linearGradient>
        <linearGradient x1="50%" y1="0%" x2="50%" y2="94.5284014%" id="linearGradient-3">
            <stop stop-color="#D8D8D8" offset="0%"></stop>
            <stop stop-color="#F5A623" stop-opacity="0" offset="100%"></stop>
        </linearGradient>
        <linearGradient x1="50%" y1="17.4584538%" x2="50%" y2="100%" id="linearGradient-4">
            <stop stop-color="#DD00BF" offset="0%"></stop>
            <stop stop-color="#B8008B" stop-opacity="0.0323256341" offset="100%"></stop>
        </linearGradient>
        <linearGradient x1="50%" y1="0%" x2="50%" y2="100%" id="linearGradient-5">
            <stop stop-color="#D8D8D8" offset="0%"></stop>
            <stop stop-color="#F5A623" stop-opacity="0" offset="100%"></stop>
        </linearGradient>
        <linearGradient x1="50%" y1="0%" x2="50%" y2="100%" id="linearGradient-6">
            <stop stop-color="#895D66" offset="0%"></stop>
            <stop stop-color="#564E47" offset="100%"></stop>
        </linearGradient>
        <linearGradient x1="50%" y1="0%" x2="50%" y2="100%" id="linearGradient-7">
            <stop stop-color="#2C2C95" stop-opacity="0.9" offset="0%"></stop>
            <stop stop-color="#564E47" offset="100%"></stop>
        </linearGradient>
        <linearGradient x1="50%" y1="0%" x2="50%" y2="100%" id="linearGradient-8">
            <stop stop-color="#223439" offset="0%"></stop>
            <stop stop-color="#2F323B" offset="100%"></stop>
        </linearGradient>
    </defs>
    <g id="Page-1" stroke="none" stroke-width="1" fill="none" fill-rule="evenodd">
        <g id="LandingPage" transform="translate(0.000000, -139.000000)">
            <g id="Group-5" transform="translate(0.000000, 139.000000)">
                <path d="M1374.201,462.46652 L69,13" id="Stroke-92" stroke="#C4CDD5" stroke-linecap="square"></path>
                <rect id="Rectangle-Copy-15" fill="url(#linearGradient-1)" fill-rule="nonzero" x="0" y="0" width="1440" height="600"></rect>
                <rect id="Rectangle-Copy-35" fill="url(#linearGradient-2)" fill-rule="nonzero" x="0" y="1.18210227" width="1440" height="600"></rect>
                <g id="Group-3" transform="translate(679.000000, 105.000000)" fill-rule="nonzero">
                    <circle id="Oval" fill="url(#linearGradient-3)" cx="176.5" cy="176.636364" r="176.5"></circle>
                    <path d="M103.708751,243.205932 C120.903432,249.422603 133.245017,252.853932 140.733507,253.49992 C148.221997,254.145908 155.768922,252.430243 163.374282,248.352926 L227.077647,184.529571 C229.908582,181.292783 231.32405,178.465595 231.32405,176.048006 C231.32405,173.630417 229.908582,171.264263 227.077647,168.949543 L183.8946,125.892243 C181.615286,123.384607 179.265525,122.130789 176.845314,122.130789 C174.425104,122.130789 171.996062,123.384607 169.558187,125.892243 L126.404412,166.477887 C123.236822,168.396821 121.440197,170.661743 121.014536,173.272653 C120.588875,175.883563 121.552442,178.728437 123.905237,181.807274 L140.733507,198.508787 L140.733507,206.692143 L113.738385,229.015711 C105.468023,232.199043 97.8235212,232.994876 90.8048811,231.40321 C83.786241,229.811544 70.1340824,216.731834 49.8484054,192.164078 C43.3838649,185.259542 43.3838649,175.594899 49.8484054,163.17015 C56.3129459,150.745401 92.7681001,114.387122 159.213868,54.0953154 C167.307506,50.7893476 173.184655,49.1363636 176.845314,49.1363636 C180.505974,49.1363636 185.371377,50.7893476 191.441525,54.0953154 C260.991208,119.63461 298.706927,155.992888 304.588683,163.17015 C310.470439,170.347412 310.470439,180.012054 304.588683,192.164078 C236.910829,257.502523 199.195109,293.052771 191.441525,298.814824 C183.68794,304.576877 173.566218,304.576877 161.076358,298.814824 L103.708751,243.205932 Z" id="Path-5" fill="url(#linearGradient-4)"></path>
                </g>
                <circle id="Oval-Copy-2" fill="url(#linearGradient-5)" fill-rule="nonzero" cx="1237" cy="174.897727" r="137"></circle>
                <path d="M1226,481 L1236,481 L1236,450 L1273,450 L1273,503.035703 L1279,503.196123 L1279,481 L1294,481 L1294,503.597172 L1307,503.944748 L1307,470 L1322,470 L1322,504.345797 L1440,507.500717 L1440,601.182102 L0,600 L0,469 L14,469.374313 L14,420 L63,420 L63,470.684406 L88,471.352822 L88,442 L127,442 L127,472.395549 L170.04626,473.54646 C171.605823,423.826953 212.40187,384 262.5,384 C313.586339,384 355,425.413661 355,476.5 C355,477.165309 354.992976,477.828977 354.978998,478.490935 L361,478.651916 L361,420 L410,420 L410,479.96201 L428,480.443269 L428,384 L482,384 L482,481.887046 L486,481.993992 L486,453 L501,453 L501,482.395041 L521,482.929773 L521,360 L589,360 L589,484.747863 L595,484.908282 L595,453 L606,453 L606,420 L674,420 L674,487.020475 L704,487.822573 L704,460 L719,460 L719,488.223622 L721,488.277095 L721,384 L770,384 L770,489.587189 L813,490.736863 L813,460 L828,460 L828,491.137912 L858,491.940011 L858,481 L873,481 L873,492.34106 L903,493.143158 L903,470 L918,470 L918,493.544207 L931,493.891783 L931,470 L946,470 L946,494.292832 L976,495.094931 L976,470 L991,470 L991,495.49598 L1017,496.191132 L1017,450 L1054,450 L1054,497.180386 L1074,497.715118 L1074,420 L1111,420 L1111,498.704373 L1121,498.971739 L1121,450 L1158,450 L1158,499.960993 L1189,500.789828 L1189,420 L1226,420 L1226,481 Z" id="Combined-Shape" fill="url(#linearGradient-6)" fill-rule="nonzero"></path>
                <path d="M1226,481 L1236,481 L1236,450 L1273,450 L1273,503.035703 L1279,503.196123 L1279,481 L1294,481 L1294,503.597172 L1307,503.944748 L1307,470 L1322,470 L1322,504.345797 L1440,507.500717 L1440,601.182102 L0,600 L0,469 L14,469.374313 L14,420 L63,420 L63,470.684406 L88,471.352822 L88,442 L127,442 L127,472.395549 L170.04626,473.54646 C171.605823,423.826953 212.40187,384 262.5,384 C313.586339,384 355,425.413661 355,476.5 C355,477.165309 354.992976,477.828977 354.978998,478.490935 L361,478.651916 L361,420 L410,420 L410,479.96201 L428,480.443269 L428,384 L482,384 L482,481.887046 L486,481.993992 L486,453 L501,453 L501,482.395041 L521,482.929773 L521,360 L589,360 L589,484.747863 L595,484.908282 L595,453 L606,453 L606,420 L674,420 L674,487.020475 L704,487.822573 L704,460 L719,460 L719,488.223622 L721,488.277095 L721,384 L770,384 L770,489.587189 L813,490.736863 L813,460 L828,460 L828,491.137912 L858,491.940011 L858,481 L873,481 L873,492.34106 L903,493.143158 L903,470 L918,470 L918,493.544207 L931,493.891783 L931,470 L946,470 L946,494.292832 L976,495.094931 L976,470 L991,470 L991,495.49598 L1017,496.191132 L1017,450 L1054,450 L1054,497.180386 L1074,497.715118 L1074,420 L1111,420 L1111,498.704373 L1121,498.971739 L1121,450 L1158,450 L1158,499.960993 L1189,500.789828 L1189,420 L1226,420 L1226,481 Z" id="Combined-Shape-Copy-2" fill="url(#linearGradient-7)" fill-rule="nonzero" opacity="0.465704055"></path>
                <path d="M1226,525 L1236,525 L1236,504.840113 L1273,504.840113 L1273,538.924458 L1279,539.027555 L1279,525 L1294,525 L1294,539.285296 L1308,539.525855 L1308,518 L1323,518 L1323,539.783596 L1440,541.793979 L1440,602 L-9.09494702e-13,601.240301 L-9.09494702e-13,517.050803 L14,517.291362 L14,485.560075 L63,485.560075 L63,518.133317 L88,518.562886 L88,499.698769 L127,499.698769 L127,519.233014 L361,523.25378 L361,485.560075 L410,485.560075 L410,524.095735 L428,524.405025 L428,462.42403 L482,462.42403 L482,525.332894 L485,525.384442 L485,507 L500,507 L500,525.642184 L521,526.003022 L521,447 L589,447 L589,527.171449 L595,527.274546 L595,507 L606,507 L606,485.560075 L674,485.560075 L674,528.631984 L704,529.147467 L704,511 L719,511 L719,529.405208 L721,529.439574 L721,462.42403 L770,462.42403 L770,530.281529 L814,531.037571 L814,511 L829,511 L829,531.295312 L858,531.793612 L858,525 L873,525 L873,532.051354 L902,532.549654 L902,518 L917,518 L917,532.807395 L931,533.047954 L931,518 L946,518 L946,533.305695 L977,533.838361 L977,518 L992,518 L992,534.096102 L1017,534.525671 L1017,504.840113 L1054,504.840113 L1054,535.161433 L1074,535.505089 L1074,485.560075 L1111,485.560075 L1111,536.140851 L1121,536.312678 L1121,504.840113 L1158,504.840113 L1158,536.948441 L1189,537.481106 L1189,485.560075 L1226,485.560075 L1226,525 Z" id="Combined-Shape" fill="url(#linearGradient-8)" fill-rule="nonzero" transform="translate(720.000000, 524.500000) scale(-1, 1) translate(-720.000000, -524.500000) "></path>
            </g>
        </g>
    </g>
</svg>