<?xml version="1.0" encoding="UTF-8"?>
<svg width="1440px" height="602px" viewBox="0 0 1440 602" version="1.1" xmlns="http://www.w3.org/2000/svg" xmlns:xlink="http://www.w3.org/1999/xlink">
    <!-- Generator: Sketch 52.2 (67145) - http://www.bohemiancoding.com/sketch -->
    <title>Group 13</title>
    <desc>Created with Sketch.</desc>
    <defs>
        <linearGradient x1="50.0000032%" y1="119.208132%" x2="50.0000032%" y2="-2.44558559%" id="linearGradient-1">
            <stop stop-color="#000000" stop-opacity="0.0131906703" offset="0%"></stop>
            <stop stop-color="#F70C3F" offset="100%"></stop>
        </linearGradient>
        <linearGradient x1="50.0000032%" y1="119.208132%" x2="50.0000032%" y2="-2.44558559%" id="linearGradient-2">
            <stop stop-color="#000000" stop-opacity="0.0131906703" offset="0%"></stop>
            <stop stop-color="#F70C72" offset="100%"></stop>
        </linearGradient>
        <linearGradient x1="50%" y1="0%" x2="50%" y2="100%" id="linearGradient-3">
            <stop stop-color="#FBD249" offset="0%"></stop>
            <stop stop-color="#F5A623" stop-opacity="0" offset="100%"></stop>
        </linearGradient>
        <linearGradient x1="50%" y1="0%" x2="50%" y2="100%" id="linearGradient-4">
            <stop stop-color="#FBD249" stop-opacity="0.374801857" offset="0%"></stop>
            <stop stop-color="#F5A623" stop-opacity="0" offset="100%"></stop>
        </linearGradient>
        <linearGradient x1="50%" y1="0%" x2="50%" y2="100%" id="linearGradient-5">
            <stop stop-color="#895D66" offset="0%"></stop>
            <stop stop-color="#564E47" offset="100%"></stop>
        </linearGradient>
        <linearGradient x1="50%" y1="0%" x2="50%" y2="100%" id="linearGradient-6">
            <stop stop-color="#2C2C95" stop-opacity="0.9" offset="0%"></stop>
            <stop stop-color="#564E47" offset="100%"></stop>
        </linearGradient>
        <linearGradient x1="50%" y1="17.4584538%" x2="50%" y2="100%" id="linearGradient-7">
            <stop stop-color="#DD00BF" offset="0%"></stop>
            <stop stop-color="#B8008B" stop-opacity="0.0323256341" offset="100%"></stop>
        </linearGradient>
    </defs>
    <g id="Page-1" stroke="none" stroke-width="1" fill="none" fill-rule="evenodd">
        <g id="Group-13" fill-rule="nonzero">
            <rect id="Rectangle-Copy-15" fill="url(#linearGradient-1)" x="0" y="0" width="1440" height="600"></rect>
            <rect id="Rectangle-Copy-35" fill="url(#linearGradient-2)" x="0" y="1.18210227" width="1440" height="600"></rect>
            <circle id="Oval" fill="url(#linearGradient-3)" cx="904.5" cy="252.5" r="200.5"></circle>
            <circle id="Oval-Copy-2" fill="url(#linearGradient-4)" cx="1274" cy="136" r="58"></circle>
            <path d="M1226,481 L1236,481 L1236,450 L1273,450 L1273,503.035703 L1279,503.196123 L1279,481 L1294,481 L1294,503.597172 L1307,503.944748 L1307,470 L1322,470 L1322,504.345797 L1440,507.500717 L1440,601.182102 L0,600 L0,469 L14,469.374313 L14,420 L63,420 L63,470.684406 L88,471.352822 L88,442 L127,442 L127,472.395549 L170.04626,473.54646 C171.605823,423.826953 212.40187,384 262.5,384 C313.586339,384 355,425.413661 355,476.5 C355,477.165309 354.992976,477.828977 354.978998,478.490935 L361,478.651916 L361,420 L410,420 L410,479.96201 L428,480.443269 L428,384 L482,384 L482,481.887046 L486,481.993992 L486,453 L501,453 L501,482.395041 L521,482.929773 L521,360 L589,360 L589,484.747863 L595,484.908282 L595,453 L606,453 L606,420 L674,420 L674,487.020475 L704,487.822573 L704,460 L719,460 L719,488.223622 L721,488.277095 L721,384 L770,384 L770,489.587189 L813,490.736863 L813,460 L828,460 L828,491.137912 L858,491.940011 L858,481 L873,481 L873,492.34106 L903,493.143158 L903,470 L918,470 L918,493.544207 L931,493.891783 L931,470 L946,470 L946,494.292832 L976,495.094931 L976,470 L991,470 L991,495.49598 L1017,496.191132 L1017,450 L1054,450 L1054,497.180386 L1074,497.715118 L1074,420 L1111,420 L1111,498.704373 L1121,498.971739 L1121,450 L1158,450 L1158,499.960993 L1189,500.789828 L1189,420 L1226,420 L1226,481 Z" id="Combined-Shape" fill="url(#linearGradient-5)"></path>
            <path d="M1226,481 L1236,481 L1236,450 L1273,450 L1273,503.035703 L1279,503.196123 L1279,481 L1294,481 L1294,503.597172 L1307,503.944748 L1307,470 L1322,470 L1322,504.345797 L1440,507.500717 L1440,601.182102 L0,600 L0,469 L14,469.374313 L14,420 L63,420 L63,470.684406 L88,471.352822 L88,442 L127,442 L127,472.395549 L170.04626,473.54646 C171.605823,423.826953 212.40187,384 262.5,384 C313.586339,384 355,425.413661 355,476.5 C355,477.165309 354.992976,477.828977 354.978998,478.490935 L361,478.651916 L361,420 L410,420 L410,479.96201 L428,480.443269 L428,384 L482,384 L482,481.887046 L486,481.993992 L486,453 L501,453 L501,482.395041 L521,482.929773 L521,360 L589,360 L589,484.747863 L595,484.908282 L595,453 L606,453 L606,420 L674,420 L674,487.020475 L704,487.822573 L704,460 L719,460 L719,488.223622 L721,488.277095 L721,384 L770,384 L770,489.587189 L813,490.736863 L813,460 L828,460 L828,491.137912 L858,491.940011 L858,481 L873,481 L873,492.34106 L903,493.143158 L903,470 L918,470 L918,493.544207 L931,493.891783 L931,470 L946,470 L946,494.292832 L976,495.094931 L976,470 L991,470 L991,495.49598 L1017,496.191132 L1017,450 L1054,450 L1054,497.180386 L1074,497.715118 L1074,420 L1111,420 L1111,498.704373 L1121,498.971739 L1121,450 L1158,450 L1158,499.960993 L1189,500.789828 L1189,420 L1226,420 L1226,481 Z" id="Combined-Shape-Copy-2" fill="url(#linearGradient-6)" opacity="0.465704055"></path>
            <path d="M821.576053,328.467913 C841.074918,335.530208 855.070345,339.428284 863.562335,340.162143 C872.054324,340.896001 880.61258,338.946963 889.2371,334.315028 L961.477074,261.810091 C964.687371,258.133018 966.292519,254.921261 966.292519,252.174819 C966.292519,249.428378 964.687371,246.740367 961.477074,244.110787 L912.507256,195.19661 C909.922502,192.347873 907.257859,190.923504 904.513327,190.923504 C901.768795,190.923504 899.014247,192.347873 896.249683,195.19661 L847.313061,241.302924 C843.720996,243.482881 841.683612,246.055889 841.20091,249.021949 C840.718208,251.988008 841.810899,255.219856 844.478981,258.717493 L863.562335,277.690831 L863.562335,286.987331 L832.949715,312.347466 C823.571077,315.96381 814.90217,316.867896 806.942992,315.059724 C798.983815,313.251552 783.502191,298.392671 760.498119,270.483083 C753.167294,262.639356 753.167294,251.660079 760.498119,237.545251 C767.828944,223.430423 809.169294,182.126504 884.519168,113.633494 C893.697399,109.877831 900.362118,108 904.513327,108 C908.664535,108 914.18193,109.877831 921.065511,113.633494 C999.935242,188.087782 1042.70508,229.391701 1049.37502,237.545251 C1056.04497,245.698801 1056.04497,256.678078 1049.37502,270.483083 C972.627957,344.7092 929.85812,385.095177 921.065511,391.641014 C912.272903,398.186851 900.794813,398.186851 886.631241,391.641014 L821.576053,328.467913 Z" id="Path-5" fill="url(#linearGradient-7)" opacity="0.628627232"></path>
        </g>
    </g>
</svg>