<?xml version="1.0" encoding="UTF-8"?>
<svg width="545px" height="600px" viewBox="0 0 545 600" version="1.1" xmlns="http://www.w3.org/2000/svg" xmlns:xlink="http://www.w3.org/1999/xlink">
    <!-- Generator: Sketch 52.2 (67145) - http://www.bohemiancoding.com/sketch -->
    <title>Slice</title>
    <desc>Created with Sketch.</desc>
    <defs>
        <linearGradient x1="50.0000032%" y1="119.208132%" x2="50.0000032%" y2="-2.44558559%" id="linearGradient-1">
            <stop stop-color="#000000" stop-opacity="0.0131906703" offset="0%"></stop>
            <stop stop-color="#F70C3F" offset="100%"></stop>
        </linearGradient>
        <linearGradient x1="50.0000032%" y1="119.208132%" x2="50.0000032%" y2="-2.44558559%" id="linearGradient-2">
            <stop stop-color="#000000" stop-opacity="0.0131906703" offset="0%"></stop>
            <stop stop-color="#F70C72" offset="100%"></stop>
        </linearGradient>
        <linearGradient x1="50%" y1="0%" x2="50%" y2="94.5284014%" id="linearGradient-3">
            <stop stop-color="#D8D8D8" offset="0%"></stop>
            <stop stop-color="#F5A623" stop-opacity="0" offset="100%"></stop>
        </linearGradient>
        <linearGradient x1="50%" y1="17.4584538%" x2="50%" y2="100%" id="linearGradient-4">
            <stop stop-color="#DD00BF" offset="0%"></stop>
            <stop stop-color="#B8008B" stop-opacity="0.0323256341" offset="100%"></stop>
        </linearGradient>
        <linearGradient x1="50%" y1="0%" x2="50%" y2="100%" id="linearGradient-5">
            <stop stop-color="#895D66" offset="0%"></stop>
            <stop stop-color="#564E47" offset="100%"></stop>
        </linearGradient>
        <linearGradient x1="50%" y1="0%" x2="50%" y2="100%" id="linearGradient-6">
            <stop stop-color="#2C2C95" stop-opacity="0.9" offset="0%"></stop>
            <stop stop-color="#564E47" offset="100%"></stop>
        </linearGradient>
        <linearGradient x1="50%" y1="0%" x2="50%" y2="100%" id="linearGradient-7">
            <stop stop-color="#223439" offset="0%"></stop>
            <stop stop-color="#2F323B" offset="100%"></stop>
        </linearGradient>
    </defs>
    <g id="Page-1" stroke="none" stroke-width="1" fill="none" fill-rule="evenodd">
        <g id="Group-15" transform="translate(-555.000000, 0.000000)" fill-rule="nonzero">
            <g id="Group-71">
                <g id="Group-70">
                    <g id="Group-69">
                        <g id="Group-66">
                            <g id="Group-65">
                                <g id="Group-62">
                                    <g id="Group-59">
                                        <g id="Group-56">
                                            <g id="Group-55">
                                                <g id="Group-53">
                                                    <g id="Group-52">
                                                        <g id="Group-49">
                                                            <g id="Group-48">
                                                                <g id="Group-47">
                                                                    <g id="Group-46">
                                                                        <g id="Group-45">
                                                                            <g id="Group-43">
                                                                                <g id="Group-42">
                                                                                    <g id="Group-40">
                                                                                        <g id="Group-39">
                                                                                            <g id="Group-38">
                                                                                                <g id="Group-37">
                                                                                                    <g id="Group-36">
                                                                                                        <g id="Group-30">
                                                                                                            <g id="Group-29">
                                                                                                                <g id="Group-27">
                                                                                                                    <g id="Group-20">
                                                                                                                        <g id="Group-16">
                                                                                                                            <g id="Group-13">
                                                                                                                                <rect id="Rectangle-Copy-15" fill="url(#linearGradient-1)" x="0" y="0" width="1440" height="600"></rect>
                                                                                                                                <rect id="Rectangle-Copy-35" fill="url(#linearGradient-2)" x="0" y="0" width="1440" height="600"></rect>
                                                                                                                                <g id="Group-3" transform="translate(679.000000, 103.000000)">
                                                                                                                                    <circle id="Oval" fill="url(#linearGradient-3)" cx="176.5" cy="176.636364" r="176.5"></circle>
                                                                                                                                    <path d="M103.708751,243.205932 C120.903432,249.422603 133.245017,252.853932 140.733507,253.49992 C148.221997,254.145908 155.768922,252.430243 163.374282,248.352926 L227.077647,184.529571 C229.908582,181.292783 231.32405,178.465595 231.32405,176.048006 C231.32405,173.630417 229.908582,171.264263 227.077647,168.949543 L183.8946,125.892243 C181.615286,123.384607 179.265525,122.130789 176.845314,122.130789 C174.425104,122.130789 171.996062,123.384607 169.558187,125.892243 L126.404412,166.477887 C123.236822,168.396821 121.440197,170.661743 121.014536,173.272653 C120.588875,175.883563 121.552442,178.728437 123.905237,181.807274 L140.733507,198.508787 L140.733507,206.692143 L113.738385,229.015711 C105.468023,232.199043 97.8235212,232.994876 90.8048811,231.40321 C83.786241,229.811544 70.1340824,216.731834 49.8484054,192.164078 C43.3838649,185.259542 43.3838649,175.594899 49.8484054,163.17015 C56.3129459,150.745401 92.7681001,114.387122 159.213868,54.0953154 C167.307506,50.7893476 173.184655,49.1363636 176.845314,49.1363636 C180.505974,49.1363636 185.371377,50.7893476 191.441525,54.0953154 C260.991208,119.63461 298.706927,155.992888 304.588683,163.17015 C310.470439,170.347412 310.470439,180.012054 304.588683,192.164078 C236.910829,257.502523 199.195109,293.052771 191.441525,298.814824 C183.68794,304.576877 173.566218,304.576877 161.076358,298.814824 L103.708751,243.205932 Z" id="Path-5" fill="url(#linearGradient-4)"></path>
                                                                                                                                </g>
                                                                                                                                <path d="M1226,479 L1236,479 L1236,448 L1273,448 L1273,501.035703 L1279,501.196123 L1279,479 L1294,479 L1294,501.597172 L1307,501.944748 L1307,468 L1322,468 L1322,502.345797 L1440,505.500717 L1440,599.182102 L0,598 L0,467 L14,467.374313 L14,418 L63,418 L63,468.684406 L88,469.352822 L88,440 L127,440 L127,470.395549 L170.04626,471.54646 C171.605823,421.826953 212.40187,382 262.5,382 C313.586339,382 355,423.413661 355,474.5 C355,475.165309 354.992976,475.828977 354.978998,476.490935 L361,476.651916 L361,418 L410,418 L410,477.96201 L428,478.443269 L428,382 L482,382 L482,479.887046 L486,479.993992 L486,451 L501,451 L501,480.395041 L521,480.929773 L521,358 L589,358 L589,482.747863 L595,482.908282 L595,451 L606,451 L606,418 L674,418 L674,485.020475 L704,485.822573 L704,458 L719,458 L719,486.223622 L721,486.277095 L721,382 L770,382 L770,487.587189 L813,488.736863 L813,458 L828,458 L828,489.137912 L858,489.940011 L858,479 L873,479 L873,490.34106 L903,491.143158 L903,468 L918,468 L918,491.544207 L931,491.891783 L931,468 L946,468 L946,492.292832 L976,493.094931 L976,468 L991,468 L991,493.49598 L1017,494.191132 L1017,448 L1054,448 L1054,495.180386 L1074,495.715118 L1074,418 L1111,418 L1111,496.704373 L1121,496.971739 L1121,448 L1158,448 L1158,497.960993 L1189,498.789828 L1189,418 L1226,418 L1226,479 Z" id="Combined-Shape" fill="url(#linearGradient-5)"></path>
                                                                                                                                <path d="M1226,479 L1236,479 L1236,448 L1273,448 L1273,501.035703 L1279,501.196123 L1279,479 L1294,479 L1294,501.597172 L1307,501.944748 L1307,468 L1322,468 L1322,502.345797 L1440,505.500717 L1440,599.182102 L0,598 L0,467 L14,467.374313 L14,418 L63,418 L63,468.684406 L88,469.352822 L88,440 L127,440 L127,470.395549 L170.04626,471.54646 C171.605823,421.826953 212.40187,382 262.5,382 C313.586339,382 355,423.413661 355,474.5 C355,475.165309 354.992976,475.828977 354.978998,476.490935 L361,476.651916 L361,418 L410,418 L410,477.96201 L428,478.443269 L428,382 L482,382 L482,479.887046 L486,479.993992 L486,451 L501,451 L501,480.395041 L521,480.929773 L521,358 L589,358 L589,482.747863 L595,482.908282 L595,451 L606,451 L606,418 L674,418 L674,485.020475 L704,485.822573 L704,458 L719,458 L719,486.223622 L721,486.277095 L721,382 L770,382 L770,487.587189 L813,488.736863 L813,458 L828,458 L828,489.137912 L858,489.940011 L858,479 L873,479 L873,490.34106 L903,491.143158 L903,468 L918,468 L918,491.544207 L931,491.891783 L931,468 L946,468 L946,492.292832 L976,493.094931 L976,468 L991,468 L991,493.49598 L1017,494.191132 L1017,448 L1054,448 L1054,495.180386 L1074,495.715118 L1074,418 L1111,418 L1111,496.704373 L1121,496.971739 L1121,448 L1158,448 L1158,497.960993 L1189,498.789828 L1189,418 L1226,418 L1226,479 Z" id="Combined-Shape-Copy-2" fill="url(#linearGradient-6)" opacity="0.465704055"></path>
                                                                                                                                <path d="M1226,523 L1236,523 L1236,502.840113 L1273,502.840113 L1273,536.924458 L1279,537.027555 L1279,523 L1294,523 L1294,537.285296 L1308,537.525855 L1308,516 L1323,516 L1323,537.783596 L1440,539.793979 L1440,600 L-9.09494702e-13,599.240301 L-9.09494702e-13,515.050803 L14,515.291362 L14,483.560075 L63,483.560075 L63,516.133317 L88,516.562886 L88,497.698769 L127,497.698769 L127,517.233014 L361,521.25378 L361,483.560075 L410,483.560075 L410,522.095735 L428,522.405025 L428,460.42403 L482,460.42403 L482,523.332894 L485,523.384442 L485,505 L500,505 L500,523.642184 L521,524.003022 L521,445 L589,445 L589,525.171449 L595,525.274546 L595,505 L606,505 L606,483.560075 L674,483.560075 L674,526.631984 L704,527.147467 L704,509 L719,509 L719,527.405208 L721,527.439574 L721,460.42403 L770,460.42403 L770,528.281529 L814,529.037571 L814,509 L829,509 L829,529.295312 L858,529.793612 L858,523 L873,523 L873,530.051354 L902,530.549654 L902,516 L917,516 L917,530.807395 L931,531.047954 L931,516 L946,516 L946,531.305695 L977,531.838361 L977,516 L992,516 L992,532.096102 L1017,532.525671 L1017,502.840113 L1054,502.840113 L1054,533.161433 L1074,533.505089 L1074,483.560075 L1111,483.560075 L1111,534.140851 L1121,534.312678 L1121,502.840113 L1158,502.840113 L1158,534.948441 L1189,535.481106 L1189,483.560075 L1226,483.560075 L1226,523 Z" id="Combined-Shape" fill="url(#linearGradient-7)" transform="translate(720.000000, 522.500000) scale(-1, 1) translate(-720.000000, -522.500000) "></path>
                                                                                                                            </g>
                                                                                                                        </g>
                                                                                                                    </g>
                                                                                                                </g>
                                                                                                            </g>
                                                                                                        </g>
                                                                                                    </g>
                                                                                                </g>
                                                                                            </g>
                                                                                        </g>
                                                                                    </g>
                                                                                </g>
                                                                            </g>
                                                                        </g>
                                                                    </g>
                                                                </g>
                                                            </g>
                                                        </g>
                                                    </g>
                                                </g>
                                            </g>
                                        </g>
                                    </g>
                                </g>
                            </g>
                        </g>
                    </g>
                </g>
            </g>
        </g>
    </g>
</svg>