<?xml version="1.0" encoding="UTF-8"?>
<svg width="396px" height="44px" viewBox="0 0 396 44" version="1.1" xmlns="http://www.w3.org/2000/svg" xmlns:xlink="http://www.w3.org/1999/xlink">
    <!-- Generator: Sketch 52.1 (67048) - http://www.bohemiancoding.com/sketch -->
    <title>Job openingsjobopeningsimage</title>
    <desc>Created with Sketch.</desc>
    <g id="Page-1" stroke="none" stroke-width="1" fill="none" fill-rule="evenodd">
        <g id="Desktop-HD" transform="translate(-140.000000, -287.000000)" fill="#2F323B">
            <path d="M163.512991,287.24606 L163.512991,296.864769 L157.893251,296.864769 L157.893251,319.725979 C157.803335,322.201504 157.53359,323.946275 157.084009,324.960346 C156.634427,325.974416 155.832686,326.928821 154.67876,327.823589 C153.524835,328.718357 152.078703,329.39688 150.340321,329.859176 C148.60194,330.321473 147.028428,330.627181 145.61974,330.776309 C144.211051,330.925437 142.337823,331 140,331 L140,321.381291 C141.318772,321.411117 142.375273,321.366379 143.169533,321.247077 C143.963794,321.127774 144.638156,320.933911 145.19264,320.66548 C145.747123,320.39705 146.196698,320.016779 146.541377,319.524657 C146.886056,319.032534 147.148308,318.115411 147.328141,316.773259 L147.328141,287.24606 L163.512991,287.24606 Z M201.002733,303.575496 C201.002733,307.10983 200.260935,310.12217 198.777316,312.612608 C197.293697,315.103046 195.146978,316.974574 192.337094,318.22725 C189.52721,319.479925 186.174133,320.106253 182.27776,320.106253 C178.381388,320.106253 175.035803,319.476197 172.240905,318.216065 C169.446007,316.955933 167.32926,315.091861 165.890599,312.623793 C164.451939,310.155724 163.732619,307.139655 163.732619,303.575496 C163.732619,300.876279 164.144729,298.501451 164.968962,296.450941 C165.793194,294.40043 166.999553,292.6743 168.588074,291.272496 C170.176595,289.870693 172.124752,288.808172 174.432603,288.084901 C176.740455,287.36163 179.355481,287 182.27776,287 C186.159146,287 189.508478,287.637513 192.325855,288.912557 C195.143232,290.187602 197.293697,292.066586 198.777316,294.549568 C200.260935,297.032549 201.002733,300.041162 201.002733,303.575496 Z M175.264325,303.664972 C175.264325,305.737851 175.732632,307.542273 176.66926,309.078292 C177.605888,310.61431 179.452891,311.382308 182.210323,311.382308 C184.338342,311.382308 185.930586,310.979668 186.987102,310.174377 C188.043618,309.369086 188.702995,308.448234 188.96525,307.411795 C189.227506,306.375355 189.40359,305.126427 189.493506,303.664972 C189.40359,301.592093 188.901565,299.783943 187.987416,298.240468 C187.073267,296.696993 185.147589,295.925267 182.210323,295.925267 C177.579635,295.925267 175.264325,298.505143 175.264325,303.664972 Z M206.347564,319.547026 L206.347564,287.24606 L228.489338,287.24606 C232.041031,287.275886 234.742226,287.887301 236.593003,289.080325 C238.44378,290.273349 239.56397,292.271635 239.953607,295.075241 C240.088482,297.222685 239.631414,298.907806 238.582391,300.130656 C237.533367,301.353506 235.802505,302.360105 233.389751,303.150483 L233.389751,303.239959 C234.573649,303.389087 235.667614,303.70598 236.671679,304.190646 C237.675744,304.675312 238.518697,305.249446 239.200562,305.913066 C239.882427,306.576685 240.410678,307.326042 240.785329,308.161159 C241.15998,308.996276 241.347303,309.816468 241.347303,310.621759 C241.347303,313.171848 240.691673,315.103027 239.380394,316.415353 C238.069115,317.72768 236.38321,318.585153 234.322628,318.987799 C232.262046,319.390444 229.763161,319.576852 226.825895,319.547026 L206.347564,319.547026 Z M217.542085,307.042705 L217.542085,313.015252 L224.757831,313.015252 C226.001673,313.05999 227.088145,312.791564 228.01728,312.209964 C228.946415,311.628365 229.410975,310.912561 229.410975,310.062532 C229.500892,309.123025 229.1225,308.384853 228.275788,307.847992 C227.429076,307.311131 226.256436,307.042705 224.757831,307.042705 L217.542085,307.042705 Z M217.542085,295.075241 L217.542085,299.974072 L225.409721,299.974072 C225.844316,299.974072 226.301384,299.746655 226.780937,299.291815 C227.260491,298.836975 227.51525,298.229287 227.545222,297.468734 C227.485278,296.588879 227.196801,295.970007 226.679782,295.6121 C226.162763,295.254192 225.731921,295.075241 225.387242,295.075241 L217.542085,295.075241 Z M308.032051,303.575496 C308.032051,307.10983 307.290252,310.12217 305.806634,312.612608 C304.323015,315.103046 302.176296,316.974574 299.366412,318.22725 C296.556528,319.479925 293.20345,320.106253 289.307078,320.106253 C285.410705,320.106253 282.065121,319.476197 279.270223,318.216065 C276.475325,316.955933 274.358577,315.091861 272.919917,312.623793 C271.481256,310.155724 270.761937,307.139655 270.761937,303.575496 C270.761937,300.876279 271.174047,298.501451 271.998279,296.450941 C272.822512,294.40043 274.028871,292.6743 275.617392,291.272496 C277.205913,289.870693 279.15407,288.808172 281.461921,288.084901 C283.769773,287.36163 286.384799,287 289.307078,287 C293.188464,287 296.537796,287.637513 299.355173,288.912557 C302.172549,290.187602 304.323015,292.066586 305.806634,294.549568 C307.290252,297.032549 308.032051,300.041162 308.032051,303.575496 Z M282.293643,303.664972 C282.293643,305.737851 282.76195,307.542273 283.698578,309.078292 C284.635206,310.61431 286.482208,311.382308 289.239641,311.382308 C291.36766,311.382308 292.959903,310.979668 294.01642,310.174377 C295.072936,309.369086 295.732312,308.448234 295.994568,307.411795 C296.256824,306.375355 296.432907,305.126427 296.522824,303.664972 C296.432907,301.592093 295.930882,299.783943 295.016733,298.240468 C294.102585,296.696993 292.176906,295.925267 289.239641,295.925267 C284.608952,295.925267 282.293643,298.505143 282.293643,303.664972 Z M313.376881,319.547026 L313.376881,287.24606 L334.507103,287.24606 C337.114675,287.484665 339.272633,288.155731 340.981043,289.259278 C342.689452,290.362825 343.903304,291.898821 344.622634,293.867311 C345.28202,296.253359 345.551765,298.042868 345.431877,299.235892 C345.311988,300.428916 345.072215,301.54736 344.71255,302.591256 C344.352885,303.635152 343.363821,304.843071 341.745327,306.215048 C340.126834,307.587026 337.968876,308.474324 335.271387,308.87697 L325.110898,308.87697 L325.110898,319.547026 L313.376881,319.547026 Z M325.110898,295.298932 L325.110898,301.24911 L333.293239,301.24911 C333.727834,301.24911 334.199888,301.0888 334.709413,300.768175 C335.218939,300.44755 335.488684,299.638542 335.518656,298.341129 C335.443726,297.103366 335.140263,296.286903 334.608258,295.891713 C334.076253,295.496524 333.630425,295.298932 333.27076,295.298932 L325.110898,295.298932 Z M350.911581,319.547026 L350.911581,287.24606 L378.740532,287.24606 L378.740532,296.864769 L361.476692,296.864769 L361.476692,300.578038 L372.626255,300.578038 L372.626255,306.215048 L361.476692,306.215048 L361.476692,309.928317 L381.482965,309.928317 L381.482965,319.547026 L350.911581,319.547026 Z M385.276748,319.547026 L385.276748,287.24606 L395.841858,287.24606 L405.507811,299.325369 L405.507811,287.24606 L416.072921,287.24606 L416.072921,319.547026 L405.507811,319.547026 L395.841858,307.467717 L395.841858,319.547026 L385.276748,319.547026 Z M420.765862,287.24606 L431.330973,287.24606 L431.330973,319.547026 L420.765862,319.547026 L420.765862,287.24606 Z M437.372651,319.547026 L437.372651,287.24606 L447.937762,287.24606 L457.603714,299.325369 L457.603714,287.24606 L468.168825,287.24606 L468.168825,319.547026 L457.603714,319.547026 L447.937762,307.467717 L447.937762,319.547026 L437.372651,319.547026 Z M495.160893,309.928317 L495.160893,303.396543 L505.321383,303.396543 L505.321383,319.547026 L490.934849,319.547026 C487.413128,319.547026 484.22864,318.924426 481.381291,317.679207 C478.533942,316.433988 476.289815,314.566188 474.648843,312.07575 C473.007871,309.585312 472.187397,306.53569 472.187397,302.926792 C472.187397,300.391616 472.678183,298.128632 473.659769,296.137773 C474.641355,294.146914 476.001318,292.491618 477.7397,291.171835 C479.478082,289.852052 481.474942,288.867822 483.730343,288.219115 C485.985743,287.570409 488.387221,287.24606 490.934849,287.24606 L505.321383,287.24606 L505.321383,296.864769 L495.160893,296.864769 C492.883014,296.864769 491.197109,296.931875 490.103127,297.06609 C489.009146,297.200306 488.035067,297.423994 487.180863,297.737163 C486.326658,298.050332 485.569874,298.594641 484.910488,299.370107 C484.251102,300.145572 483.868963,301.51753 483.764061,303.486019 C483.838991,305.394858 484.22113,306.759359 484.910488,307.579563 C485.599846,308.399767 486.439052,308.944076 487.428131,309.212506 C488.41721,309.480937 489.436246,309.667344 490.48527,309.771734 C491.534293,309.876123 493.092819,309.928317 495.160893,309.928317 Z M536,296.864769 L528.087406,296.864769 C524.235992,296.745466 523.666531,297.804259 526.379006,300.041179 C531.234485,304.276415 533.617231,308.392286 533.527315,312.388917 C533.437398,316.385548 531.054652,318.77156 526.379006,319.547026 L509.115165,319.547026 L509.115165,309.928317 L515.948769,309.928317 C520.18982,310.04762 520.72931,308.869526 517.567254,306.394001 C512.352109,301.621905 510.134207,297.237607 510.913482,293.240976 C511.692756,289.244345 514.150431,287.24606 518.28658,287.24606 L536,287.24606 L536,296.864769 Z" id="Job-openings"></path>
        </g>
    </g>
</svg>